<?xml version="1.0" encoding="utf-8"?>
<!-- Generator: Adobe Illustrator 20.0.0, SVG Export Plug-In . SVG Version: 6.00 Build 0)  -->
<svg version="1.1" xmlns="http://www.w3.org/2000/svg" xmlns:xlink="http://www.w3.org/1999/xlink" x="0px" y="0px"
	 viewBox="0 0 256 256" style="enable-background:new 0 0 256 256;" xml:space="preserve">
<style type="text/css">
	.st0{display:none;}
	.st1{display:inline;opacity:0.1;}
	.st2{fill:none;stroke:#000000;stroke-width:0.5;stroke-miterlimit:10;}
	.st3{fill:#626D7B;}
	.st4{fill:#00D4AC;}
	.st5{fill:#959CA9;}
	.st6{fill:#414A57;}
	.st7{fill:#FF9933;}
	.st8{fill:#FFFFFF;}
	.st9{fill:#128807;}
	.st10{fill:#000088;}
	.st11{fill:none;stroke:#000088;stroke-width:0.1;stroke-miterlimit:10;}
	.st12{fill:#27AAE1;}
	.st13{fill:#BF0A30;}
	.st14{fill:#002868;}
	.st15{fill:#ED2939;}
	.st16{fill:#F4F4F4;}
	.st17{fill:none;stroke:#FFFFFF;stroke-width:0.5;stroke-miterlimit:10;}
	.st18{fill:url(#SVGID_1_);}
	.st19{fill:url(#SVGID_2_);}
	.st20{fill:url(#SVGID_3_);}
	.st21{fill:url(#SVGID_4_);}
	.st22{opacity:0.2;enable-background:new    ;}
	.st23{opacity:0.12;enable-background:new    ;}
	.st24{opacity:0.25;fill:#FFFFFF;enable-background:new    ;}
	.st25{fill:#231F20;}
</style>
<g id="Layer_3" class="st0">
	<g class="st1">
		<circle class="st2" cx="240" cy="16" r="16"/>
	</g>
	<g class="st1">
		<circle class="st2" cx="208" cy="16" r="16"/>
	</g>
	<g class="st1">
		<circle class="st2" cx="176" cy="16" r="16"/>
	</g>
	<g class="st1">
		<circle class="st2" cx="144" cy="16" r="16"/>
	</g>
	<g class="st1">
		<circle class="st2" cx="112" cy="16" r="16"/>
	</g>
	<g class="st1">
		<circle class="st2" cx="80" cy="16" r="16"/>
	</g>
	<g class="st1">
		<circle class="st2" cx="48" cy="16" r="16"/>
	</g>
	<g class="st1">
		<circle class="st2" cx="16" cy="16" r="16"/>
	</g>
	<g class="st1">
		<circle class="st2" cx="240" cy="48" r="16"/>
	</g>
	<g class="st1">
		<circle class="st2" cx="208" cy="48" r="16"/>
	</g>
	<g class="st1">
		<circle class="st2" cx="176" cy="48" r="16"/>
	</g>
	<g class="st1">
		<circle class="st2" cx="144" cy="48" r="16"/>
	</g>
	<g class="st1">
		<circle class="st2" cx="112" cy="48" r="16"/>
	</g>
	<g class="st1">
		<circle class="st2" cx="80" cy="48" r="16"/>
	</g>
	<g class="st1">
		<circle class="st2" cx="48" cy="48" r="16"/>
	</g>
	<g class="st1">
		<circle class="st2" cx="16" cy="48" r="16"/>
	</g>
	<g class="st1">
		<circle class="st2" cx="240" cy="80" r="16"/>
	</g>
	<g class="st1">
		<circle class="st2" cx="208" cy="80" r="16"/>
	</g>
	<g class="st1">
		<circle class="st2" cx="176" cy="80" r="16"/>
	</g>
	<g class="st1">
		<circle class="st2" cx="144" cy="80" r="16"/>
	</g>
	<g class="st1">
		<circle class="st2" cx="112" cy="80" r="16"/>
	</g>
	<g class="st1">
		<circle class="st2" cx="80" cy="80" r="16"/>
	</g>
	<g class="st1">
		<circle class="st2" cx="48" cy="80" r="16"/>
	</g>
	<g class="st1">
		<circle class="st2" cx="16" cy="80" r="16"/>
	</g>
	<g class="st1">
		<circle class="st2" cx="240" cy="112" r="16"/>
	</g>
	<g class="st1">
		<circle class="st2" cx="208" cy="112" r="16"/>
	</g>
	<g class="st1">
		<circle class="st2" cx="176" cy="112" r="16"/>
	</g>
	<g class="st1">
		<circle class="st2" cx="144" cy="112" r="16"/>
	</g>
	<g class="st1">
		<circle class="st2" cx="112" cy="112" r="16"/>
	</g>
	<g class="st1">
		<circle class="st2" cx="80" cy="112" r="16"/>
	</g>
	<g class="st1">
		<circle class="st2" cx="48" cy="112" r="16"/>
	</g>
	<g class="st1">
		<circle class="st2" cx="16" cy="112" r="16"/>
	</g>
	<g class="st1">
		<circle class="st2" cx="240" cy="144" r="16"/>
	</g>
	<g class="st1">
		<circle class="st2" cx="208" cy="144" r="16"/>
	</g>
	<g class="st1">
		<circle class="st2" cx="176" cy="144" r="16"/>
	</g>
	<g class="st1">
		<circle class="st2" cx="144" cy="144" r="16"/>
	</g>
	<g class="st1">
		<circle class="st2" cx="112" cy="144" r="16"/>
	</g>
	<g class="st1">
		<circle class="st2" cx="80" cy="144" r="16"/>
	</g>
	<g class="st1">
		<circle class="st2" cx="48" cy="144" r="16"/>
	</g>
	<g class="st1">
		<circle class="st2" cx="16" cy="144" r="16"/>
	</g>
	<g class="st1">
		<circle class="st2" cx="240" cy="176" r="16"/>
	</g>
	<g class="st1">
		<circle class="st2" cx="208" cy="176" r="16"/>
	</g>
	<g class="st1">
		<circle class="st2" cx="176" cy="176" r="16"/>
	</g>
	<g class="st1">
		<circle class="st2" cx="144" cy="176" r="16"/>
	</g>
	<g class="st1">
		<circle class="st2" cx="112" cy="176" r="16"/>
	</g>
	<g class="st1">
		<circle class="st2" cx="80" cy="176" r="16"/>
	</g>
	<g class="st1">
		<circle class="st2" cx="48" cy="176" r="16"/>
	</g>
	<g class="st1">
		<circle class="st2" cx="16" cy="176" r="16"/>
	</g>
	<g class="st1">
		<circle class="st2" cx="240" cy="208" r="16"/>
	</g>
	<g class="st1">
		<circle class="st2" cx="208" cy="208" r="16"/>
	</g>
	<g class="st1">
		<circle class="st2" cx="176" cy="208" r="16"/>
	</g>
	<g class="st1">
		<circle class="st2" cx="144" cy="208" r="16"/>
	</g>
	<g class="st1">
		<circle class="st2" cx="112" cy="208" r="16"/>
	</g>
	<g class="st1">
		<circle class="st2" cx="80" cy="208" r="16"/>
	</g>
	<g class="st1">
		<circle class="st2" cx="48" cy="208" r="16"/>
	</g>
	<g class="st1">
		<circle class="st2" cx="16" cy="208" r="16"/>
	</g>
	<g class="st1">
		<circle class="st2" cx="240" cy="240" r="16"/>
	</g>
	<g class="st1">
		<circle class="st2" cx="208" cy="240" r="16"/>
	</g>
	<g class="st1">
		<circle class="st2" cx="176" cy="240" r="16"/>
	</g>
	<g class="st1">
		<circle class="st2" cx="144" cy="240" r="16"/>
	</g>
	<g class="st1">
		<circle class="st2" cx="112" cy="240" r="16"/>
	</g>
	<g class="st1">
		<circle class="st2" cx="80" cy="240" r="16"/>
	</g>
	<g class="st1">
		<circle class="st2" cx="48" cy="240" r="16"/>
	</g>
	<g class="st1">
		<circle class="st2" cx="16" cy="240" r="16"/>
	</g>
</g>
<g id="Layer_1">
	<g>
		<circle class="st3" cx="15.2" cy="21" r="1.2"/>
		<circle class="st3" cx="19.9" cy="21" r="1.2"/>
		<path class="st3" d="M24,11.1H11.9l-0.4-1.2l-0.1-0.3H11H8v1h2.7l3.1,8.4l0.1,0.3h0.4h7.3l0.4-1h-7.3l-0.4-1.1h7.9L24,11.1z
			 M13.8,16.2l-1.5-4.2h10.4l-1.3,4.2H13.8z"/>
	</g>
	<g>
		<circle class="st4" cx="15.2" cy="53.2" r="1.2"/>
		<circle class="st4" cx="19.9" cy="53.2" r="1.2"/>
		<path class="st4" d="M24,43.2H11.9L11.5,42l-0.1-0.3H11H8v1h2.7l3.1,8.4l0.1,0.3h0.4h7.3l0.4-1h-7.3l-0.4-1.1h7.9L24,43.2z"/>
	</g>
	<path class="st5" d="M55.1,8H40.9C40.4,8,40,8.4,40,8.9v14.2c0,0.5,0.4,0.9,0.9,0.9h14.2c0.5,0,0.9-0.4,0.9-0.9V8.9
		C56,8.4,55.6,8,55.1,8z M51.5,11.5l-1.3,0c-1,0-1.2,0.5-1.2,1.2v1.5h2.4l-0.3,2.4h-2.1v6.2h-2.5v-6.2h-2.1v-2.4h2.1v-1.8
		c0-2.1,1.3-3.2,3.1-3.2c0.9,0,1.6,0.1,1.9,0.1V11.5z"/>
	<g>
		<path class="st5" d="M80,9.4c2.1,0,2.4,0,3.2,0c0.8,0,1.2,0.2,1.5,0.3c0.4,0.1,0.6,0.3,0.9,0.6c0.3,0.3,0.5,0.5,0.6,0.9
			c0.1,0.3,0.2,0.7,0.3,1.5c0,0.8,0,1.1,0,3.2s0,2.4,0,3.2c0,0.8-0.2,1.2-0.3,1.5c-0.1,0.4-0.3,0.6-0.6,0.9
			c-0.3,0.3-0.5,0.5-0.9,0.6c-0.3,0.1-0.7,0.2-1.5,0.3c-0.8,0-1.1,0-3.2,0s-2.4,0-3.2,0c-0.8,0-1.2-0.2-1.5-0.3
			c-0.4-0.1-0.6-0.3-0.9-0.6c-0.3-0.3-0.5-0.5-0.6-0.9c-0.1-0.3-0.2-0.7-0.3-1.5c0-0.8,0-1.1,0-3.2s0-2.4,0-3.2
			c0-0.8,0.2-1.2,0.3-1.5c0.1-0.4,0.3-0.6,0.6-0.9c0.3-0.3,0.5-0.5,0.9-0.6c0.3-0.1,0.7-0.2,1.5-0.3C77.6,9.4,77.9,9.4,80,9.4 M80,8
			c-2.2,0-2.4,0-3.3,0c-0.9,0-1.4,0.2-1.9,0.4c-0.5,0.2-1,0.5-1.4,0.9c-0.4,0.4-0.7,0.9-0.9,1.4c-0.2,0.5-0.3,1.1-0.4,1.9
			c0,0.9,0,1.1,0,3.3c0,2.2,0,2.4,0,3.3c0,0.9,0.2,1.4,0.4,1.9c0.2,0.5,0.5,1,0.9,1.4c0.4,0.4,0.9,0.7,1.4,0.9
			c0.5,0.2,1.1,0.3,1.9,0.4c0.9,0,1.1,0,3.3,0s2.4,0,3.3,0c0.9,0,1.4-0.2,1.9-0.4c0.5-0.2,1-0.5,1.4-0.9c0.4-0.4,0.7-0.9,0.9-1.4
			c0.2-0.5,0.3-1.1,0.4-1.9c0-0.9,0-1.1,0-3.3s0-2.4,0-3.3c0-0.9-0.2-1.4-0.4-1.9c-0.2-0.5-0.5-1-0.9-1.4c-0.4-0.4-0.9-0.7-1.4-0.9
			c-0.5-0.2-1.1-0.3-1.9-0.4C82.4,8,82.2,8,80,8L80,8z"/>
		<path class="st5" d="M80,11.9c-2.3,0-4.1,1.8-4.1,4.1s1.8,4.1,4.1,4.1s4.1-1.8,4.1-4.1S82.3,11.9,80,11.9z M80,18.7
			c-1.5,0-2.7-1.2-2.7-2.7s1.2-2.7,2.7-2.7s2.7,1.2,2.7,2.7S81.5,18.7,80,18.7z"/>
		<circle class="st5" cx="84.3" cy="11.7" r="1"/>
	</g>
	<g>
		<path class="st5" d="M110.5,15.4c0.2,0,0.4-0.1,0.5-0.2c0.2-0.2,0.3-0.6,0.2-1c-0.1-0.7-0.6-1.4-1.2-1.4h0c-0.2,0-0.4,0.1-0.5,0.2
			c-0.2,0.2-0.3,0.6-0.2,1C109.4,14.8,110,15.4,110.5,15.4L110.5,15.4z"/>
		<path class="st5" d="M111.1,17.6c-0.1,0-0.1-0.1-0.2-0.1c-0.2-0.1-0.4-0.1-0.5-0.1h0c-0.9,0-1.6,0.5-1.6,1.1
			c0,0.6,0.6,1.1,1.5,1.1c1.1,0,1.6-0.4,1.6-1.1c0-0.1,0-0.1,0-0.2C111.8,18.1,111.5,17.9,111.1,17.6z"/>
		<path class="st5" d="M112,8c-4.4,0-8,3.6-8,8s3.6,8,8,8c4.4,0,8-3.6,8-8S116.4,8,112,8z M111.3,20.4c-0.3,0.1-0.7,0.1-1,0.1
			c-0.4,0-0.8,0-1.2-0.1c-0.7-0.2-1.2-0.5-1.5-0.9c-0.1-0.2-0.2-0.4-0.2-0.6c0-0.2,0.1-0.4,0.2-0.6c0.4-0.8,1.4-1.4,2.5-1.4
			c0,0,0,0,0,0c-0.1-0.2-0.1-0.3-0.1-0.5c0-0.1,0-0.2,0-0.3c-1.2,0-2-0.9-2-2c0-0.8,0.6-1.6,1.6-1.9c0.3-0.1,0.6-0.1,0.8-0.1h2.5
			c0.1,0,0.2,0.1,0.2,0.1c0,0.1,0,0.2-0.1,0.2l-0.6,0.4c0,0-0.1,0-0.1,0h-0.2c0.3,0.3,0.4,0.8,0.4,1.3c0,0.5-0.3,1.1-0.8,1.5
			c-0.4,0.3-0.4,0.4-0.4,0.6c0,0.1,0.3,0.4,0.6,0.6c0.7,0.5,1,1,1,1.8C112.9,19.3,112.3,20.1,111.3,20.4z M116.9,16.1
			c0,0.1-0.1,0.2-0.2,0.2h-1.4v1.4c0,0.1-0.1,0.2-0.2,0.2h-0.4c-0.1,0-0.2-0.1-0.2-0.2v-1.4h-1.4c-0.1,0-0.2-0.1-0.2-0.2v-0.4
			c0-0.1,0.1-0.2,0.2-0.2h1.4V14c0-0.1,0.1-0.2,0.2-0.2h0.4c0.1,0,0.2,0.1,0.2,0.2v1.4h1.4c0.1,0,0.2,0.1,0.2,0.2L116.9,16.1
			L116.9,16.1z"/>
	</g>
	<path class="st6" d="M55.1,40H40.9c-0.5,0-0.9,0.4-0.9,0.9v14.2c0,0.5,0.4,0.9,0.9,0.9h14.2c0.5,0,0.9-0.4,0.9-0.9V40.9
		C56,40.4,55.6,40,55.1,40z M51.5,43.5l-1.3,0c-1,0-1.2,0.5-1.2,1.2v1.5h2.4l-0.3,2.4h-2.1v6.2h-2.5v-6.2h-2.1v-2.4h2.1v-1.8
		c0-2.1,1.3-3.2,3.1-3.2c0.9,0,1.6,0.1,1.9,0.1V43.5z"/>
	<g>
		<path class="st6" d="M80,41.4c2.1,0,2.4,0,3.2,0c0.8,0,1.2,0.2,1.5,0.3c0.4,0.1,0.6,0.3,0.9,0.6c0.3,0.3,0.5,0.5,0.6,0.9
			c0.1,0.3,0.2,0.7,0.3,1.5c0,0.8,0,1.1,0,3.2s0,2.4,0,3.2c0,0.8-0.2,1.2-0.3,1.5c-0.1,0.4-0.3,0.6-0.6,0.9
			c-0.3,0.3-0.5,0.5-0.9,0.6c-0.3,0.1-0.7,0.2-1.5,0.3c-0.8,0-1.1,0-3.2,0s-2.4,0-3.2,0c-0.8,0-1.2-0.2-1.5-0.3
			c-0.4-0.1-0.6-0.3-0.9-0.6c-0.3-0.3-0.5-0.5-0.6-0.9c-0.1-0.3-0.2-0.7-0.3-1.5c0-0.8,0-1.1,0-3.2s0-2.4,0-3.2
			c0-0.8,0.2-1.2,0.3-1.5c0.1-0.4,0.3-0.6,0.6-0.9c0.3-0.3,0.5-0.5,0.9-0.6c0.3-0.1,0.7-0.2,1.5-0.3C77.6,41.4,77.9,41.4,80,41.4
			 M80,40c-2.2,0-2.4,0-3.3,0c-0.9,0-1.4,0.2-1.9,0.4c-0.5,0.2-1,0.5-1.4,0.9c-0.4,0.4-0.7,0.9-0.9,1.4c-0.2,0.5-0.3,1.1-0.4,1.9
			c0,0.9,0,1.1,0,3.3c0,2.2,0,2.4,0,3.3c0,0.9,0.2,1.4,0.4,1.9c0.2,0.5,0.5,1,0.9,1.4c0.4,0.4,0.9,0.7,1.4,0.9
			c0.5,0.2,1.1,0.3,1.9,0.4c0.9,0,1.1,0,3.3,0s2.4,0,3.3,0c0.9,0,1.4-0.2,1.9-0.4c0.5-0.2,1-0.5,1.4-0.9c0.4-0.4,0.7-0.9,0.9-1.4
			c0.2-0.5,0.3-1.1,0.4-1.9c0-0.9,0-1.1,0-3.3s0-2.4,0-3.3c0-0.9-0.2-1.4-0.4-1.9c-0.2-0.5-0.5-1-0.9-1.4c-0.4-0.4-0.9-0.7-1.4-0.9
			c-0.5-0.2-1.1-0.3-1.9-0.4C82.4,40,82.2,40,80,40L80,40z"/>
		<path class="st6" d="M80,43.9c-2.3,0-4.1,1.8-4.1,4.1s1.8,4.1,4.1,4.1s4.1-1.8,4.1-4.1S82.3,43.9,80,43.9z M80,50.7
			c-1.5,0-2.7-1.2-2.7-2.7s1.2-2.7,2.7-2.7s2.7,1.2,2.7,2.7S81.5,50.7,80,50.7z"/>
		<circle class="st6" cx="84.3" cy="43.7" r="1"/>
	</g>
	<g>
		<path class="st6" d="M110.5,47.4c0.2,0,0.4-0.1,0.5-0.2c0.2-0.2,0.3-0.6,0.2-1c-0.1-0.7-0.6-1.4-1.2-1.4h0c-0.2,0-0.4,0.1-0.5,0.2
			c-0.2,0.2-0.3,0.6-0.2,1C109.4,46.8,110,47.4,110.5,47.4L110.5,47.4z"/>
		<path class="st6" d="M111.1,49.6c-0.1,0-0.1-0.1-0.2-0.1c-0.2-0.1-0.4-0.1-0.5-0.1h0c-0.9,0-1.6,0.5-1.6,1.1
			c0,0.6,0.6,1.1,1.5,1.1c1.1,0,1.6-0.4,1.6-1.1c0-0.1,0-0.1,0-0.2C111.8,50.1,111.5,49.9,111.1,49.6z"/>
		<path class="st6" d="M112,40c-4.4,0-8,3.6-8,8s3.6,8,8,8c4.4,0,8-3.6,8-8S116.4,40,112,40z M111.3,52.4c-0.3,0.1-0.7,0.1-1,0.1
			c-0.4,0-0.8,0-1.2-0.1c-0.7-0.2-1.2-0.5-1.5-0.9c-0.1-0.2-0.2-0.4-0.2-0.6c0-0.2,0.1-0.4,0.2-0.6c0.4-0.8,1.4-1.4,2.5-1.4
			c0,0,0,0,0,0c-0.1-0.2-0.1-0.3-0.1-0.5c0-0.1,0-0.2,0-0.3c-1.2,0-2-0.9-2-2c0-0.8,0.6-1.6,1.6-1.9c0.3-0.1,0.6-0.1,0.8-0.1h2.5
			c0.1,0,0.2,0.1,0.2,0.1c0,0.1,0,0.2-0.1,0.2l-0.6,0.4c0,0-0.1,0-0.1,0h-0.2c0.3,0.3,0.4,0.8,0.4,1.3c0,0.5-0.3,1.1-0.8,1.5
			c-0.4,0.3-0.4,0.4-0.4,0.6c0,0.1,0.3,0.4,0.6,0.6c0.7,0.5,1,1,1,1.8C112.9,51.3,112.3,52.1,111.3,52.4z M116.9,48.1
			c0,0.1-0.1,0.2-0.2,0.2h-1.4v1.4c0,0.1-0.1,0.2-0.2,0.2h-0.4c-0.1,0-0.2-0.1-0.2-0.2v-1.4h-1.4c-0.1,0-0.2-0.1-0.2-0.2v-0.4
			c0-0.1,0.1-0.2,0.2-0.2h1.4V46c0-0.1,0.1-0.2,0.2-0.2h0.4c0.1,0,0.2,0.1,0.2,0.2v1.4h1.4c0.1,0,0.2,0.1,0.2,0.2L116.9,48.1
			L116.9,48.1z"/>
	</g>
</g>
<g id="Layer_2">
	<g>
		<rect x="136" y="10.7" class="st7" width="16" height="10.7"/>
		<rect x="136" y="14.2" class="st8" width="16" height="3.6"/>
		<rect x="136" y="17.8" class="st9" width="16" height="3.6"/>
		<g>
			<circle class="st10" cx="31.5" cy="-59" r="1.7"/>
			<circle class="st8" cx="31.5" cy="-59" r="1.5"/>
			<circle class="st10" cx="31.5" cy="-59" r="0.3"/>
		</g>
		<g>
			<g>
				<line class="st11" x1="144" y1="17.5" x2="144" y2="14.5"/>
			</g>
			<g>
				<line class="st11" x1="143.6" y1="17.5" x2="144.4" y2="14.5"/>
			</g>
			<g>
				<line class="st11" x1="143.2" y1="17.3" x2="144.8" y2="14.7"/>
			</g>
			<g>
				<line class="st11" x1="142.9" y1="17.1" x2="145.1" y2="14.9"/>
			</g>
			<g>
				<line class="st11" x1="142.7" y1="16.8" x2="145.3" y2="15.2"/>
			</g>
			<g>
				<line class="st11" x1="142.5" y1="16.4" x2="145.5" y2="15.6"/>
			</g>
			<g>
				<line class="st11" x1="142.5" y1="16" x2="145.5" y2="16"/>
			</g>
			<g>
				<line class="st11" x1="142.5" y1="15.6" x2="145.5" y2="16.4"/>
			</g>
			<g>
				<line class="st11" x1="142.7" y1="15.2" x2="145.3" y2="16.8"/>
			</g>
			<g>
				<line class="st11" x1="142.9" y1="14.9" x2="145.1" y2="17.1"/>
			</g>
			<g>
				<line class="st11" x1="143.2" y1="14.7" x2="144.8" y2="17.3"/>
			</g>
			<g>
				<line class="st11" x1="143.6" y1="14.5" x2="144.4" y2="17.5"/>
			</g>
			<g>
				<line class="st11" x1="144" y1="14.5" x2="144" y2="17.5"/>
			</g>
		</g>
	</g>
	<g>
		<rect x="232" y="10.7" class="st12" width="16" height="10.7"/>
	</g>
	<g>
		<rect x="168" y="10.7" class="st8" width="16" height="10.7"/>
		<g>
			<rect id="stripe" x="168" y="10.7" class="st13" width="16" height="0.8"/>
		</g>
		<g>
			<rect id="stripe_1_" x="168" y="12.3" class="st13" width="16" height="0.8"/>
		</g>
		<g>
			<rect id="stripe_2_" x="168" y="13.9" class="st13" width="16" height="0.8"/>
		</g>
		<g>
			<rect id="stripe_3_" x="168" y="15.6" class="st13" width="16" height="0.8"/>
		</g>
		<g>
			<rect id="stripe_4_" x="168" y="17.2" class="st13" width="16" height="0.8"/>
		</g>
		<g>
			<rect id="stripe_5_" x="168" y="18.9" class="st13" width="16" height="0.8"/>
		</g>
		<g>
			<rect id="stripe_6_" x="168" y="20.5" class="st13" width="16" height="0.8"/>
		</g>
		<rect x="168" y="10.7" class="st14" width="7.2" height="5.7"/>
		<g>
			<path id="s" class="st8" d="M168.5,10.9l0.2,0.5l-0.5-0.3h0.6l-0.5,0.3L168.5,10.9z"/>
			<path id="s_1_" class="st8" d="M168.5,12.1l0.2,0.5l-0.5-0.3h0.6l-0.5,0.3L168.5,12.1z"/>
			<path id="s_2_" class="st8" d="M168.5,13.3l0.2,0.5l-0.5-0.3h0.6l-0.5,0.3L168.5,13.3z"/>
			<path id="s_3_" class="st8" d="M168.5,14.4l0.2,0.5l-0.5-0.3h0.6l-0.5,0.3L168.5,14.4z"/>
			<path id="s_4_" class="st8" d="M168.5,15.5l0.2,0.5l-0.5-0.3h0.6l-0.5,0.3L168.5,15.5z"/>
			<path id="s_5_" class="st8" d="M169.2,11.5l0.2,0.5l-0.5-0.3h0.6l-0.5,0.3L169.2,11.5z"/>
			<path id="s_6_" class="st8" d="M169.2,12.7l0.2,0.5l-0.5-0.3h0.6l-0.5,0.3L169.2,12.7z"/>
			<path id="s_7_" class="st8" d="M169.2,13.9l0.2,0.5l-0.5-0.3h0.6l-0.5,0.3L169.2,13.9z"/>
			<path id="s_8_" class="st8" d="M169.2,15l0.2,0.5l-0.5-0.3h0.6l-0.5,0.3L169.2,15z"/>
			<path id="s_9_" class="st8" d="M169.8,10.9l0.2,0.5l-0.5-0.3h0.6l-0.5,0.3L169.8,10.9z"/>
			<path id="s_10_" class="st8" d="M169.8,12.1l0.2,0.5l-0.5-0.3h0.6l-0.5,0.3L169.8,12.1z"/>
			<path id="s_11_" class="st8" d="M169.8,13.3l0.2,0.5l-0.5-0.3h0.6l-0.5,0.3L169.8,13.3z"/>
			<path id="s_12_" class="st8" d="M169.8,14.4l0.2,0.5l-0.5-0.3h0.6l-0.5,0.3L169.8,14.4z"/>
			<path id="s_13_" class="st8" d="M169.8,15.5l0.2,0.5l-0.5-0.3h0.6l-0.5,0.3L169.8,15.5z"/>
			<path id="s_14_" class="st8" d="M170.4,11.5l0.2,0.5l-0.5-0.3h0.6l-0.5,0.3L170.4,11.5z"/>
			<path id="s_15_" class="st8" d="M170.4,12.7l0.2,0.5l-0.5-0.3h0.6l-0.5,0.3L170.4,12.7z"/>
			<path id="s_16_" class="st8" d="M170.4,13.9l0.2,0.5l-0.5-0.3h0.6l-0.5,0.3L170.4,13.9z"/>
			<path id="s_17_" class="st8" d="M170.4,15l0.2,0.5l-0.5-0.3h0.6l-0.5,0.3L170.4,15z"/>
			<path id="s_18_" class="st8" d="M171,10.9l0.2,0.5l-0.5-0.3h0.6l-0.5,0.3L171,10.9z"/>
			<path id="s_19_" class="st8" d="M171,12.1l0.2,0.5l-0.5-0.3h0.6l-0.5,0.3L171,12.1z"/>
			<path id="s_20_" class="st8" d="M171,13.3l0.2,0.5l-0.5-0.3h0.6l-0.5,0.3L171,13.3z"/>
			<path id="s_21_" class="st8" d="M171,14.4l0.2,0.5l-0.5-0.3h0.6l-0.5,0.3L171,14.4z"/>
			<path id="s_22_" class="st8" d="M171,15.5l0.2,0.5l-0.5-0.3h0.6l-0.5,0.3L171,15.5z"/>
			<path id="s_23_" class="st8" d="M171.6,11.5l0.2,0.5l-0.5-0.3h0.6l-0.5,0.3L171.6,11.5z"/>
			<path id="s_24_" class="st8" d="M171.6,12.7l0.2,0.5l-0.5-0.3h0.6l-0.5,0.3L171.6,12.7z"/>
			<path id="s_25_" class="st8" d="M171.6,13.9l0.2,0.5l-0.5-0.3h0.6l-0.5,0.3L171.6,13.9z"/>
			<path id="s_26_" class="st8" d="M171.6,15l0.2,0.5l-0.5-0.3h0.6l-0.5,0.3L171.6,15z"/>
			<path id="s_27_" class="st8" d="M172.2,10.9l0.2,0.5l-0.5-0.3h0.6l-0.5,0.3L172.2,10.9z"/>
			<path id="s_28_" class="st8" d="M172.2,12.1l0.2,0.5l-0.5-0.3h0.6l-0.5,0.3L172.2,12.1z"/>
			<path id="s_29_" class="st8" d="M172.2,13.3l0.2,0.5l-0.5-0.3h0.6l-0.5,0.3L172.2,13.3z"/>
			<path id="s_30_" class="st8" d="M172.2,14.4l0.2,0.5l-0.5-0.3h0.6l-0.5,0.3L172.2,14.4z"/>
			<path id="s_31_" class="st8" d="M172.2,15.5l0.2,0.5l-0.5-0.3h0.6l-0.5,0.3L172.2,15.5z"/>
			<path id="s_32_" class="st8" d="M172.8,11.5l0.2,0.5l-0.5-0.3h0.6l-0.5,0.3L172.8,11.5z"/>
			<path id="s_33_" class="st8" d="M172.8,12.7l0.2,0.5l-0.5-0.3h0.6l-0.5,0.3L172.8,12.7z"/>
			<path id="s_34_" class="st8" d="M172.8,13.9l0.2,0.5l-0.5-0.3h0.6l-0.5,0.3L172.8,13.9z"/>
			<path id="s_35_" class="st8" d="M172.8,15l0.2,0.5l-0.5-0.3h0.6l-0.5,0.3L172.8,15z"/>
			<path id="s_36_" class="st8" d="M173.4,10.9l0.2,0.5l-0.5-0.3h0.6l-0.5,0.3L173.4,10.9z"/>
			<path id="s_37_" class="st8" d="M173.4,12.1l0.2,0.5l-0.5-0.3h0.6l-0.5,0.3L173.4,12.1z"/>
			<path id="s_38_" class="st8" d="M173.4,13.3l0.2,0.5l-0.5-0.3h0.6l-0.5,0.3L173.4,13.3z"/>
			<path id="s_39_" class="st8" d="M173.4,14.4l0.2,0.5l-0.5-0.3h0.6l-0.5,0.3L173.4,14.4z"/>
			<path id="s_40_" class="st8" d="M173.4,15.5l0.2,0.5l-0.5-0.3h0.6l-0.5,0.3L173.4,15.5z"/>
			<path id="s_41_" class="st8" d="M174.1,11.5l0.2,0.5l-0.5-0.3h0.6l-0.5,0.3L174.1,11.5z"/>
			<path id="s_42_" class="st8" d="M174.1,12.7l0.2,0.5l-0.5-0.3h0.6l-0.5,0.3L174.1,12.7z"/>
			<path id="s_43_" class="st8" d="M174.1,13.9l0.2,0.5l-0.5-0.3h0.6l-0.5,0.3L174.1,13.9z"/>
			<path id="s_44_" class="st8" d="M174.1,15l0.2,0.5l-0.5-0.3h0.6l-0.5,0.3L174.1,15z"/>
			<path id="s_45_" class="st8" d="M174.7,10.9l0.2,0.5l-0.5-0.3h0.6l-0.5,0.3L174.7,10.9z"/>
			<path id="s_46_" class="st8" d="M174.7,12.1l0.2,0.5l-0.5-0.3h0.6l-0.5,0.3L174.7,12.1z"/>
			<path id="s_47_" class="st8" d="M174.7,13.3l0.2,0.5l-0.5-0.3h0.6l-0.5,0.3L174.7,13.3z"/>
			<path id="s_48_" class="st8" d="M174.7,14.4l0.2,0.5l-0.5-0.3h0.6l-0.5,0.3L174.7,14.4z"/>
			<path id="s_49_" class="st8" d="M174.7,15.5l0.2,0.5l-0.5-0.3h0.6l-0.5,0.3L174.7,15.5z"/>
		</g>
	</g>
	<g>
		<rect x="200" y="10.7" class="st15" width="16" height="5.3"/>
		<g>
			<rect x="200.1" y="16.1" class="st8" width="15.8" height="5.1"/>
			<path class="st16" d="M215.8,16.2v4.8h-15.5v-4.8H215.8 M216,16h-16v5.3h16V16L216,16z"/>
		</g>
		<path class="st8" d="M205.5,13.3c0,1.1-0.9,2-2,2c-1.1,0-2-0.9-2-2s0.9-2,2-2C204.6,11.3,205.5,12.2,205.5,13.3z"/>
		<path class="st15" d="M206.1,13.3c0,1-0.8,1.9-1.9,1.9s-1.9-0.8-1.9-1.9s0.8-1.9,1.9-1.9S206.1,12.3,206.1,13.3z"/>
		<path id="star" class="st8" d="M203.7,13.4l-0.3-0.2l-0.3,0.2l0.1-0.3l-0.3-0.2l0.3,0l0.1-0.3l0.1,0.3l0.3,0l-0.3,0.2L203.7,13.4z
			"/>
		<g transform="translate(577.189)">
			<path id="star_1_" class="st8" d="M205.9,13.4l-0.3-0.2l-0.3,0.2l0.1-0.3l-0.3-0.2l0.3,0l0.1-0.3l0.1,0.3l0.3,0l-0.3,0.2
				L205.9,13.4z"/>
		</g>
		<g transform="translate(288.889, -214.211)">
			<path id="star_2_" class="st8" d="M204.8,12.6l-0.3-0.2l-0.3,0.2l0.1-0.3l-0.3-0.2l0.3,0l0.1-0.3l0.1,0.3l0.3,0l-0.3,0.2
				L204.8,12.6z"/>
		</g>
		<g transform="translate(108, 342.749)">
			<path id="star_3_" class="st8" d="M204.1,14.7l-0.3-0.2l-0.3,0.2l0.1-0.3l-0.3-0.2l0.3,0l0.1-0.3l0.1,0.3l0.3,0l-0.3,0.2
				L204.1,14.7z"/>
		</g>
		<g transform="translate(469.189, 342.749)">
			<path id="star_4_" class="st8" d="M205.5,14.7l-0.3-0.2l-0.3,0.2l0.1-0.3l-0.3-0.2l0.3,0l0.1-0.3l0.1,0.3l0.3,0l-0.3,0.2
				L205.5,14.7z"/>
		</g>
	</g>
	<g>
		<circle class="st17" cx="240" cy="16" r="4.3"/>
		<rect x="238" y="14" class="st17" width="3.9" height="3.9"/>
		<line class="st17" x1="238.2" y1="14.2" x2="236.9" y2="12.9"/>
		<line class="st17" x1="238.2" y1="17.8" x2="237" y2="19"/>
		<line class="st17" x1="241.8" y1="17.8" x2="243.1" y2="19.1"/>
		<line class="st17" x1="242" y1="14" x2="243.1" y2="12.9"/>
		<line class="st17" x1="240" y1="11.9" x2="240" y2="20.3"/>
		<line class="st17" x1="235.8" y1="16" x2="244.3" y2="16"/>
	</g>
	<g>
		
			<linearGradient id="SVGID_1_" gradientUnits="userSpaceOnUse" x1="16.1754" y1="185.0238" x2="5.7357" y2="174.5842" gradientTransform="matrix(1 0 0 -1 0 258)">
			<stop  offset="0" style="stop-color:#00A0FF"/>
			<stop  offset="6.574450e-03" style="stop-color:#00A1FF"/>
			<stop  offset="0.2601" style="stop-color:#00BEFF"/>
			<stop  offset="0.5122" style="stop-color:#00D2FF"/>
			<stop  offset="0.7604" style="stop-color:#00DFFF"/>
			<stop  offset="1" style="stop-color:#00E3FF"/>
		</linearGradient>
		<path class="st18" d="M9.1,72.2c-0.2,0.2-0.3,0.5-0.3,0.9v13.8c0,0.4,0.1,0.7,0.3,0.9l0,0l7.7-7.7V80v-0.1L9.1,72.2L9.1,72.2z"/>
		
			<linearGradient id="SVGID_2_" gradientUnits="userSpaceOnUse" x1="23.6617" y1="177.9997" x2="8.6097" y2="177.9997" gradientTransform="matrix(1 0 0 -1 0 258)">
			<stop  offset="0" style="stop-color:#FFE000"/>
			<stop  offset="0.4087" style="stop-color:#FFBD00"/>
			<stop  offset="0.7754" style="stop-color:#FFA500"/>
			<stop  offset="1" style="stop-color:#FF9C00"/>
		</linearGradient>
		<path class="st19" d="M19.4,82.7l-2.6-2.6V80v-0.1l2.6-2.6l0.1,0l3,1.7c0.9,0.5,0.9,1.3,0,1.8L19.4,82.7L19.4,82.7z"/>
		
			<linearGradient id="SVGID_3_" gradientUnits="userSpaceOnUse" x1="18.0585" y1="176.5723" x2="3.9015" y2="162.4152" gradientTransform="matrix(1 0 0 -1 0 258)">
			<stop  offset="0" style="stop-color:#FF3A44"/>
			<stop  offset="1" style="stop-color:#C31162"/>
		</linearGradient>
		<path class="st20" d="M19.5,82.6L16.9,80l-7.8,7.8c0.3,0.3,0.8,0.3,1.3,0L19.5,82.6"/>
		
			<linearGradient id="SVGID_4_" gradientUnits="userSpaceOnUse" x1="7.154" y1="190.3322" x2="13.4757" y2="184.0105" gradientTransform="matrix(1 0 0 -1 0 258)">
			<stop  offset="0" style="stop-color:#32A071"/>
			<stop  offset="6.850000e-02" style="stop-color:#2DA771"/>
			<stop  offset="0.4762" style="stop-color:#15CF74"/>
			<stop  offset="0.8009" style="stop-color:#06E775"/>
			<stop  offset="1" style="stop-color:#00F076"/>
		</linearGradient>
		<path class="st21" d="M19.5,77.4l-9.1-5.2c-0.5-0.3-1-0.3-1.3,0l7.8,7.8L19.5,77.4z"/>
		<g>
			<path class="st22" d="M19.4,82.6l-9,5.1c-0.5,0.3-1,0.3-1.2,0l0,0l0,0l0,0l0,0l0,0c0.3,0.3,0.7,0.3,1.2,0L19.4,82.6L19.4,82.6z"
				/>
			<path class="st23" d="M9.1,87.7c-0.2-0.2-0.3-0.5-0.3-0.9v0.1C8.8,87.3,8.9,87.6,9.1,87.7L9.1,87.7L9.1,87.7z"/>
		</g>
		<path class="st23" d="M22.5,80.8l-3.1,1.8l0.1,0.1L22.5,80.8c0.4-0.2,0.7-0.5,0.7-0.8l0,0C23.1,80.3,22.9,80.6,22.5,80.8z"/>
		<path class="st24" d="M10.4,72.3l12.1,6.9c0.4,0.2,0.6,0.5,0.7,0.8l0,0c0-0.3-0.2-0.7-0.7-0.9L10.4,72.3c-0.9-0.6-1.6-0.2-1.6,0.8
			v0.1C8.8,72.2,9.5,71.8,10.4,72.3z"/>
	</g>
	<g>
		<g>
			<path class="st25" d="M52.4,80.5c0-2,1.7-3,1.7-3.1c-0.9-1.4-2.4-1.6-2.9-1.6c-1.2-0.1-2.4,0.7-3.1,0.7c-0.6,0-1.6-0.7-2.7-0.7
				c-1.3,0-2.6,0.8-3.3,2c-1.4,2.5-0.4,6.1,1,8.1c0.7,1,1.5,2.1,2.5,2c1,0,1.4-0.6,2.6-0.6c1.2,0,1.6,0.6,2.6,0.6c1.1,0,1.8-1,2.4-2
				c0.8-1.1,1.1-2.2,1.1-2.3C54.5,83.7,52.4,82.9,52.4,80.5z"/>
			<path class="st25" d="M50.4,74.6c0.5-0.7,0.9-1.6,0.8-2.6c-0.8,0-1.8,0.5-2.4,1.2c-0.5,0.6-1,1.6-0.8,2.5
				C48.9,75.8,49.8,75.2,50.4,74.6z"/>
		</g>
	</g>
</g>
</svg>
