<svg id="Layer_1" data-name="Layer 1" xmlns="http://www.w3.org/2000/svg" viewBox="0 0 757.02 128.07"><defs><style>.cls-1,.cls-4{fill:#fcb131;}.cls-2{fill:#fff;}.cls-3{fill:#f47937;}.cls-3,.cls-4{fill-rule:evenodd;}</style></defs><title>Artboard 1</title><path class="cls-1" d="M184.46,114c0-3.62.86-5.34,3.1-8.1L223.9,60.48a101,101,0,0,1,7.41-8.09V52a65.55,65.55,0,0,1-8.1.34H193.42c-4.82,0-7.23-2.59-7.23-7.23V41c0-4.65,2.41-7.23,7.23-7.23h60.27c4.65,0,7.23,2.07,7.23,5.86v1.72c0,3.61-.86,5.34-3.09,8.09L221.49,95.1a64.31,64.31,0,0,1-7.58,8.09v.34a47.85,47.85,0,0,1,8.27-.51H254.9c4.82,0,7.23,2.58,7.23,7.23v4.13q0,7.23-7.23,7.24H191.7c-4.65,0-7.23-2.07-7.23-5.86Z"/><path class="cls-1" d="M314.83,29.65c26.69,0,48.39,19.12,48.39,46,0,27-21.7,46-48.39,46s-48.22-18.94-48.22-46C266.61,48.77,288.14,29.65,314.83,29.65Zm0,73.37C329.13,103,341,92,341,75.64c0-16.19-11.88-27.38-26.18-27.38s-26,11.19-26,27.38C288.83,92,300.54,103,314.83,103Z"/><path class="cls-1" d="M417.65,29.65c26.69,0,48.39,19.12,48.39,46,0,27-21.7,46-48.39,46s-48.22-18.94-48.22-46C369.42,48.77,391,29.65,417.65,29.65Zm0,73.37c14.29,0,26.18-11,26.18-27.38,0-16.19-11.89-27.38-26.18-27.38s-26,11.19-26,27.38C391.64,92,403.35,103,417.65,103Z"/><path class="cls-1" d="M477.75,41c0-4.65,2.41-7.23,7.06-7.23h6.72c4.65,0,7.06,2.58,7.06,7.23v5.34a28.06,28.06,0,0,1-.34,4h.34c4.3-8.61,15-18.6,28.76-18.6,13.26,0,22,6.2,25.66,18.08h.34c4.65-9.13,16.19-18.08,30-18.08,18.25,0,28.76,10.33,28.76,33.41v49.25c0,4.82-2.58,7.24-7.23,7.24h-7.4q-7.24,0-7.23-7.24V69.26c0-10-1.9-17.57-12.06-17.57-14.81,0-22.39,15.16-22.39,30.48v32.2c0,4.82-2.41,7.24-7.06,7.24h-7.57c-4.65,0-7.23-2.41-7.23-7.24V69.26c0-9.47-1.38-17.57-11.71-17.57-15.5,0-22.73,15.85-22.73,30.48v32.2c0,4.82-2.41,7.24-7.06,7.24h-7.58c-4.65,0-7.06-2.41-7.06-7.24Z"/><path class="cls-1" d="M628.09,18.84V13.68c0-4.65,2.41-7.23,7.06-7.23h7.58c4.65,0,7.23,2.58,7.23,7.23v5.16c0,4.65-2.58,7.06-7.23,7.06h-7.58C630.5,25.91,628.09,23.49,628.09,18.84Zm0,22.18c0-4.65,2.41-7.23,7.06-7.23h7.58c4.65,0,7.06,2.58,7.06,7.23v73.36c0,4.82-2.41,7.24-7.06,7.24h-7.58c-4.65,0-7.06-2.41-7.06-7.24Z"/><path class="cls-1" d="M667.18,41c0-4.65,2.41-7.23,7.06-7.23H681c4.65,0,7.06,2.58,7.06,7.23v5.34a28.4,28.4,0,0,1-.34,4H688a34.26,34.26,0,0,1,31.17-18.6c19.46,0,30.66,10.16,30.66,33.41v49.25q0,7.23-7.23,7.24h-7.41c-4.65,0-7.23-2.41-7.23-7.24V69.61c0-10.68-2.76-17.91-13.78-17.91-15.5,0-25.32,12.92-25.32,28.76v33.92c0,4.82-2.41,7.24-7.06,7.24h-7.57c-4.65,0-7.06-2.41-7.06-7.24Z"/><circle class="cls-2" cx="127.69" cy="48.96" r="12.97"/><circle class="cls-2" cx="75.07" cy="78.61" r="38.34"/><circle class="cls-2" cx="129.91" cy="46.71" r="9.16"/><circle class="cls-2" cx="75.14" cy="79.55" r="38.81"/><path class="cls-3" d="M130.14,121.62V54.8h0a8.24,8.24,0,1,0,0-16.48h0V33.74a13,13,0,0,1,13,13V108.5A13.09,13.09,0,0,1,130.14,121.62ZM109.39,77.68a34.12,34.12,0,0,1-34.17,34.18v9.77h54.92V54.8a8.24,8.24,0,1,1,0-16.48V33.74H106.8c-.46-.46-1.83-2.14-6.41-6.56-6.25-6.26-5.8-7.93-13-7.93H75.22v24.1A34.25,34.25,0,0,1,109.39,77.68ZM75.22,111.86h0a34.25,34.25,0,1,1,0-68.51h0V19.25H63c-7.32,0-8.09,2.9-13.12,7.93a87.23,87.23,0,0,0-6.25,6.56H20.29a13.09,13.09,0,0,0-13.12,13V108.5a13.22,13.22,0,0,0,13.12,13.12H75.22Z"/><path class="cls-3" d="M65.15,69c3.2-2.74,6.26-7,3.66-7a9.12,9.12,0,0,0-3.66.76v-3.2a20.12,20.12,0,0,1,10.07-2.6,20.68,20.68,0,0,1,0,41.35,20.2,20.2,0,0,1-10.07-2.59Zm-4.73,1.38h0c0,2,2.29.76,4.73-1.38v26.7a20.43,20.43,0,0,1-10.68-18A20.67,20.67,0,0,1,65.15,59.53v3.2A8.57,8.57,0,0,0,60.41,70.36Z"/><path class="cls-4" d="M92.45,78.6a17.32,17.32,0,1,1-34.63,0C57.82,69,92.45,69,92.45,78.6Z"/></svg>